<svg xmlns="http://www.w3.org/2000/svg" width="259" height="80" viewBox="0 0 259 80" style="background:#fff"><title>Untitled</title><g fill="none" fill-rule="nonzero"><path fill="#EA0029" d="M66.937 29.5h-13.87a5.988 5.988 0 0 0-6.177 5.774v31.381h-9.305v-45.4H12.862v-9.014h24.731v9.015h29.352V29.5h-.008zM80 0H0v80h80V0z"/><path fill="#003DA6" d="M242.923 23.5h-12.528v37.34h-7.521V23.5h-12.528v-6.514h32.577V23.5zm-53.311 11.971l16.478 25.37h-9.085l-12.343-19.05-4.821 6.2v12.841h-7.521V16.978h7.521v20.049h.314l15.664-20.049h8.207l-14.414 18.493zM162.106 60.84h-27.57V16.986h26.941V23.5h-19.42v12.027h18.171v6.514h-18.171v12.278h20.049v6.521zM125.457 23.5h-18.169v12.027h16.913v6.514h-16.913v18.791h-7.521V16.978h25.684V23.5h.006zM258.724 0H82.297v79.978h176.427V0z"/></g></svg>